<svg width="60" height="61" viewBox="0 0 60 61" fill="none" xmlns="http://www.w3.org/2000/svg">
<rect y="0.814453" width="60" height="60" rx="10" fill="url(#paint0_linear_915_255)"/>
<rect y="0.814453" width="60" height="60" rx="10" fill="url(#paint1_radial_915_255)"/>
<path d="M30.6046 13.7197V18.7175L35.341 16.2186L30.6046 13.7197ZM29.3297 18.0954C27.7716 18.1359 26.2411 18.324 24.9568 18.6462C25.1112 18.7534 25.2112 18.893 25.247 19.0514C25.2741 19.1722 25.2633 19.3011 25.2154 19.4309C25.1674 19.5607 25.0832 19.6887 24.9674 19.8078C24.8517 19.9268 24.7068 20.0345 24.5409 20.1247C24.3751 20.2148 24.1915 20.2858 24.0008 20.3333C23.8101 20.3809 23.6159 20.4043 23.4293 20.402C23.2428 20.3998 23.0675 20.372 22.9135 20.3203C22.7595 20.2685 22.6298 20.1938 22.5318 20.1005C22.4338 20.0071 22.3695 19.897 22.3424 19.7762C22.3407 19.7669 22.3392 19.7576 22.3378 19.7483C22.2504 19.8125 22.1676 19.8774 22.0952 19.9429C21.6943 20.3055 21.5387 20.6279 21.5387 21.0015C21.5387 21.3752 21.6943 21.6976 22.0952 22.0602C22.4961 22.4228 23.1363 22.7726 23.9359 23.0538C25.535 23.6162 27.7538 23.9161 29.9671 23.9161C32.1805 23.9161 34.3993 23.6162 35.9983 23.0537C36.7979 22.7726 37.4381 22.4228 37.8391 22.0602C38.2399 21.6976 38.3955 21.3752 38.3955 21.0015C38.3955 20.6279 38.2399 20.3055 37.8391 19.9429C37.4382 19.5803 36.7979 19.2305 35.9983 18.9493C35.4047 18.7405 34.7246 18.5687 33.9921 18.4344L30.6046 20.2214V21.0015H29.3297V18.0954ZM21.1411 22.9631L19.5168 30.6754C19.5448 30.6742 19.5731 30.6736 19.6014 30.6735C19.7332 30.675 19.8674 30.6883 20.0003 30.7132C20.1932 30.7492 20.3803 30.809 20.5507 30.889C20.7212 30.9691 20.8717 31.0679 20.9936 31.1798C21.1156 31.2916 21.2066 31.4144 21.2615 31.5411C21.3164 31.6678 21.3341 31.7958 21.3136 31.918C21.2722 32.1647 21.0776 32.3724 20.7728 32.4953C20.468 32.6183 20.0778 32.6465 19.6881 32.5737C19.5008 32.5386 19.3191 32.4811 19.1527 32.4044L17.1015 42.1438C17.1383 42.1423 17.1757 42.1419 17.2136 42.1427C17.4328 42.1483 17.6634 42.1921 17.8867 42.2705C18.0727 42.3357 18.2495 42.4236 18.4071 42.5289C18.5647 42.6343 18.7 42.7551 18.8052 42.8845C18.9104 43.0139 18.9836 43.1494 19.0204 43.2831C19.0573 43.4169 19.0572 43.5463 19.02 43.664C18.9829 43.7818 18.9095 43.8855 18.8041 43.9693C18.6987 44.0531 18.5632 44.1153 18.4054 44.1524C18.2477 44.1895 18.0708 44.2008 17.8848 44.1855C17.6987 44.1703 17.5073 44.1288 17.3213 44.0635C17.1912 44.0178 17.0654 43.9609 16.9473 43.8945C17.0335 44.2173 17.205 44.52 17.4603 44.83C17.9986 45.4835 18.9554 46.1045 20.2062 46.6039C21.7663 47.2268 23.7671 47.6662 25.9315 47.9087C25.938 46.6744 25.9879 44.8879 26.3741 43.2584C26.6007 42.3019 26.9407 41.3885 27.5145 40.6711C28.0882 39.9534 28.9401 39.4607 29.9671 39.4607C30.9941 39.4607 31.846 39.9535 32.4198 40.671C32.6374 40.9431 32.8212 41.2435 32.9781 41.5636C33.3737 41.5639 33.7529 41.6635 34.0324 41.8407C34.3119 42.0178 34.469 42.258 34.469 42.5084C34.4687 42.6907 34.3851 42.8691 34.2283 43.022C34.0714 43.1749 33.8481 43.2958 33.5851 43.3702C33.9476 44.9693 33.9964 46.7025 34.0028 47.9087C36.1672 47.6662 38.1679 47.2268 39.7281 46.6039C39.8343 46.5615 39.9375 46.5179 40.0394 46.4739C39.8819 46.3921 39.7706 46.2734 39.7153 46.1282C39.6715 46.013 39.664 45.8838 39.6932 45.748C39.7224 45.6122 39.7877 45.4723 39.8854 45.3365C39.9831 45.2006 40.1113 45.0715 40.2626 44.9563C40.414 44.8412 40.5855 44.7423 40.7674 44.6654C41.0465 44.5474 41.3394 44.4855 41.6077 44.4879C41.8001 44.4896 41.9744 44.5244 42.1184 44.5899C42.2625 44.6553 42.3728 44.7498 42.442 44.8669C42.4525 44.8546 42.4638 44.8423 42.4739 44.83C43.0121 44.1765 43.1823 43.5566 42.953 42.7096L42.9478 42.6903L40.0285 28.8285C39.892 28.8827 39.7473 28.9244 39.5995 28.9521C39.2098 29.0249 38.8196 28.9967 38.5147 28.8737C38.2099 28.7507 38.0153 28.5431 37.9739 28.2963C37.9534 28.1742 37.9711 28.0461 38.026 27.9194C38.0809 27.7927 38.1719 27.67 38.2939 27.5581C38.4158 27.4462 38.5663 27.3474 38.7368 27.2673C38.9072 27.1872 39.0943 27.1275 39.2873 27.0914C39.4096 27.069 39.533 27.0562 39.6546 27.0536L38.7931 22.9631C38.7525 23.0037 38.7111 23.0432 38.6687 23.0817C38.078 23.6159 37.3018 24.0134 36.4015 24.3301C34.6008 24.9634 32.2867 25.2613 29.9671 25.2613C29.5638 25.2613 29.1607 25.2516 28.7602 25.2335C28.6813 25.439 28.4956 25.6218 28.2331 25.7526C27.9705 25.8834 27.6462 25.9547 27.3121 25.9549C26.9163 25.9549 26.5368 25.8554 26.2569 25.6782C25.9771 25.501 25.8198 25.2607 25.8198 25.0102C25.8199 24.9789 25.8223 24.9477 25.8272 24.9166C25.0053 24.7697 24.2302 24.5754 23.5328 24.3301C22.6325 24.0134 21.8561 23.6159 21.2655 23.0817C21.2232 23.0432 21.1817 23.0037 21.1411 22.9631ZM36.5387 34.7484C36.7347 34.7484 36.9287 34.7728 37.1098 34.8203C37.2909 34.8678 37.4554 34.9374 37.594 35.0251C37.7325 35.1129 37.8424 35.217 37.9174 35.3317C37.9924 35.4463 38.031 35.5692 38.031 35.6932C38.031 35.9438 37.8738 36.1841 37.5939 36.3613C37.314 36.5385 36.9345 36.638 36.5387 36.638C36.1429 36.638 35.7633 36.5385 35.4834 36.3613C35.2036 36.1841 35.0463 35.9438 35.0463 35.6932C35.0463 35.5692 35.0849 35.4463 35.1599 35.3317C35.2349 35.217 35.3448 35.1129 35.4834 35.0251C35.622 34.9374 35.7865 34.8678 35.9676 34.8203C36.1486 34.7728 36.3427 34.7484 36.5387 34.7484Z" fill="#1C1C1C"/>
<defs>
<linearGradient id="paint0_linear_915_255" x1="30" y1="0.814452" x2="51.2677" y2="53.5488" gradientUnits="userSpaceOnUse">
<stop stop-color="#6AC1FF"/>
<stop offset="1" stop-color="#C349D7"/>
</linearGradient>
<radialGradient id="paint1_radial_915_255" cx="0" cy="0" r="1" gradientUnits="userSpaceOnUse" gradientTransform="translate(78.3258 41.6192) rotate(-153.518) scale(73.3353 239.781)">
<stop stop-color="#FF3D00" stop-opacity="0.51"/>
<stop offset="1" stop-color="#FFA775" stop-opacity="0"/>
</radialGradient>
</defs>
</svg>
